<?xml version="1.0" encoding="UTF-8" standalone="no"?>
<!-- Created with Inkscape (http://www.inkscape.org/) -->

<svg
   xmlns:dc="http://purl.org/dc/elements/1.1/"
   xmlns:cc="http://creativecommons.org/ns#"
   xmlns:rdf="http://www.w3.org/1999/02/22-rdf-syntax-ns#"
   xmlns:svg="http://www.w3.org/2000/svg"
   xmlns="http://www.w3.org/2000/svg"
   xmlns:sodipodi="http://sodipodi.sourceforge.net/DTD/sodipodi-0.dtd"
   xmlns:inkscape="http://www.inkscape.org/namespaces/inkscape"
   width="210mm"
   height="297mm"
   viewBox="0 0 210 297"
   version="1.1"
   id="svg8"
   sodipodi:docname="AvailEntryPoint.svg"
   inkscape:export-filename="/Users/Rich/Development/plugins/Avail Plugin/resources/icons/AvailEntryPoint.png"
   inkscape:export-xdpi="6.1900001"
   inkscape:export-ydpi="6.1900001"
   inkscape:version="0.92.2 5c3e80d, 2017-08-06">
  <defs
     id="defs2" />
  <sodipodi:namedview
     id="base"
     pagecolor="#ffffff"
     bordercolor="#666666"
     borderopacity="1.0"
     inkscape:pageopacity="0.0"
     inkscape:pageshadow="2"
     inkscape:zoom="0.35"
     inkscape:cx="-70.866057"
     inkscape:cy="197.48004"
     inkscape:document-units="mm"
     inkscape:current-layer="layer1"
     showgrid="true"
     inkscape:window-width="1446"
     inkscape:window-height="870"
     inkscape:window-x="1440"
     inkscape:window-y="1"
     inkscape:window-maximized="0">
    <inkscape:grid
       type="xygrid"
       id="grid77" />
  </sodipodi:namedview>
  <metadata
     id="metadata5">
    <rdf:RDF>
      <cc:Work
         rdf:about="">
        <dc:format>image/svg+xml</dc:format>
        <dc:type
           rdf:resource="http://purl.org/dc/dcmitype/StillImage" />
      </cc:Work>
    </rdf:RDF>
  </metadata>
  <g
     inkscape:label="Layer 1"
     inkscape:groupmode="layer"
     id="layer1">
    <g
       transform="matrix(0.66790108,0,0,0.66790108,18.517506,-511.08476)"
       id="layer1-8"
       inkscape:label="Layer 1">
      <g
         transform="matrix(0.33695652,0,0,0.33695652,3.197619,738.02709)"
         id="g3090">
        <ellipse
           style="fill:#0f824e;fill-opacity:1;stroke-width:2.5;stroke-miterlimit:4;stroke-dasharray:none"
           id="path2994"
           transform="translate(418,-34)"
           cx="-48"
           cy="603.36218"
           rx="368"
           ry="289" />
        <path
           inkscape:connector-curvature="0"
           style="color:#000000;font-style:normal;font-variant:normal;font-weight:normal;font-stretch:normal;font-size:medium;line-height:normal;font-family:Sans;-inkscape-font-specification:Sans;text-indent:0;text-align:start;text-decoration:none;text-decoration-line:none;letter-spacing:normal;word-spacing:normal;text-transform:none;writing-mode:lr-tb;direction:ltr;baseline-shift:baseline;text-anchor:start;display:inline;overflow:visible;visibility:visible;fill-opacity:1;fill-rule:nonzero;stroke:none;stroke-width:1;marker:none;enable-background:accumulate"
           d="m 377.70565,273.90625 c -0.003,0 -0.81001,0.18641 -0.9375,0.28125 -0.12738,0.0948 -0.14099,0.13734 -0.1875,0.1875 -0.0927,0.10063 -0.14494,0.15887 -0.1875,0.21875 -0.0854,0.12008 -0.10269,0.23486 -0.1875,0.375 -0.16994,0.2806 -0.38163,0.72184 -0.65625,1.21875 -0.54927,0.99385 -1.3712,2.37345 -2.375,4.28125 -2.00762,3.81563 -4.95171,9.4927 -8.65625,16.71875 -7.40913,14.45211 -18.03222,35.30966 -31.0625,61.09375 -26.06059,51.56816 -61.78969,122.66778 -100.90625,200.90625 -39.11717,78.23972 -74.17821,149.14159 -99.25,200.28125 -12.53591,25.56981 -22.61673,46.23379 -29.375,60.40625 -3.37914,7.08624 -5.936821,12.48454 -7.593754,16.15625 -0.828476,1.83578 -1.438095,3.24586 -1.8125,4.1875 -0.187207,0.47082 -0.284589,0.79615 -0.375,1.125 -0.04512,0.16447 -0.12111,0.32069 -0.09375,0.78125 0.0066,0.11522 0.0073,0.24668 0.09375,0.46875 0.08655,0.22192 0.651728,0.74734 0.65625,0.75 0.0047,0 0.792729,0.23736 1.0625,0.1875 0.269772,-0.0502 0.451664,-0.12031 0.5625,-0.1875 0.301236,-0.1824 0.633688,-0.40074 1.25,-0.84375 0.616303,-0.443 1.406821,-1.03448 2.468754,-1.8125 2.12383,-1.55587 5.13153,-3.85922 8.90625,-6.65625 7.54942,-5.59405 18.16873,-13.49864 31.15625,-23.1875 25.975,-19.37764 61.32717,-45.72313 99.65625,-74.46875 L 378.2994,632.4375 516.14315,736.375 c 38.16671,28.75583 73.28815,55.18476 99.15625,74.5625 12.93404,9.68884 23.5741,17.59588 31.09375,23.1875 3.75981,2.79582 6.78995,5.00823 8.90625,6.5625 1.05816,0.7771 1.85385,1.37018 2.46875,1.8125 0.61489,0.44232 0.93241,0.65444 1.25,0.84375 0.11278,0.0669 0.2892,0.14008 0.5625,0.1875 0.27329,0.0471 1.05796,-0.18476 1.0625,-0.1875 0.003,0 0.57171,-0.53058 0.65625,-0.75 0.0845,-0.21948 0.0871,-0.35437 0.0937,-0.46875 0.0274,-0.45752 -0.0489,-0.52265 -0.0937,-0.6875 -0.0903,-0.32968 -0.18774,-0.65342 -0.375,-1.125 -0.37447,-0.94316 -0.98401,-2.35035 -1.8125,-4.1875 -1.65698,-3.67422 -4.21461,-9.16148 -7.59375,-16.25 -6.75832,-14.17696 -16.83911,-34.83302 -29.375,-60.40625 -25.07182,-51.14645 -60.1328,-122.0415 -99.25,-200.28125 C 483.77658,480.94903 448.04748,409.84941 421.9869,358.28125 408.9566,332.49716 398.33352,311.63961 390.9244,297.1875 c -3.70455,-7.22605 -6.64864,-12.90312 -8.65625,-16.71875 -1.0038,-1.9078 -1.82574,-3.2874 -2.375,-4.28125 -0.27452,-0.49691 -0.48641,-0.93824 -0.65625,-1.21875 -0.0848,-0.14014 -0.10208,-0.25492 -0.1875,-0.375 -0.0426,-0.0598 -0.0948,-0.11815 -0.1875,-0.21875 -0.0465,-0.0502 -0.0601,-0.0926 -0.1875,-0.1875 -0.12738,-0.0948 -0.96548,-0.28125 -0.96875,-0.28125 z m 0.6875,183.25 41.78125,70.3125 c 23.66512,39.87279 46.71468,78.81473 51.21875,86.53125 l 6.15625,10.5625 -47.6875,-16.4375 -51.5625,-17.875 -0.5,-0.0937 -0.46875,0.0937 -52.15625,18.25 c -23.50535,8.20189 -36.39483,12.55518 -42.75,14.0625 -1.5888,0.37683 -2.75384,0.61466 -3.5,0.65625 -0.27999,0.0152 -0.14597,0.0213 -0.28125,0 0.13862,-0.31267 0.3043,-0.57537 0.65625,-1.125 1.28455,-2.00616 7.68993,-12.64297 17.1875,-28.40625 9.49757,-15.76329 22.04931,-36.59719 35.25,-58.625 z"
           id="path3027" />
      </g>
    </g>
    <g
       id="g4766"
       transform="matrix(0.04805813,0,0,0.04805813,78.993994,119.50271)"
       style="opacity:0.8;fill:#999999">
      <title
         id="title4762">Layer 1</title>
      <path
         d="m 636.89313,439.24521 c 51.44275,0 93.16083,-40.06287 93.16083,-89.29843 0,-49.23566 -41.71808,-89.1637 -93.16083,-89.1637 -51.58344,0 -93.30133,39.92804 -93.30133,89.1637 0,49.23556 41.71789,89.29843 93.30133,89.29843"
         id="path8248"
         inkscape:connector-curvature="0"
         style="fill:#999999;fill-rule:nonzero" />
      <path
         d="m 368.2666,463.83588 -101.91434,135.3103 c -6.04162,8.53522 -15.15347,13.77008 -25.45385,13.77008 -18.22376,0 -32.98102,-16.95648 -32.98102,-37.7821 0,-11.38019 4.25876,-21.50867 11.0927,-28.4505 L 328.94687,401.2449 c 6.04156,-8.30758 15.15344,-13.65628 25.45383,-13.65628 l 159.0617,-0.11374 c 11.68689,0 22.18549,5.46244 29.91071,13.99759 l 101.41907,116.53302 84.08685,-96.39013 c 5.94251,-5.80381 13.56879,-9.21793 21.88825,-9.21793 18.81799,0 33.97149,17.52542 33.97149,39.14771 0,9.44567 -2.77325,17.98071 -7.62628,24.80886 L 675.79236,593.68372 c -30.80206,35.27862 -55.56262,5.34863 -55.56262,5.34863 l -62.19836,-71.80896 -97.16044,129.16516 89.03898,102.30786 c 0,0 18.81799,20.02912 8.02233,59.85974 l -49.91717,255.71255 c -3.96173,22.1915 -20.99701,38.9205 -41.39966,38.9205 -23.47293,0 -42.39004,-21.8501 -42.39004,-48.7073 0,-4.3243 0.39624,-8.4214 1.28759,-12.2905 L 466.61542,842.45447 365.39438,729.44934 278.33637,840.97522 c 0,0 -14.06403,19.91534 -51.40292,18.43585 L 50.341377,859.7525 c -19.709412,0.34143 -37.636045,-15.13574 -41.993896,-38.12365 -5.249184,-26.17444 8.814758,-51.89368 31.693501,-57.69758 3.56551,-0.9104 7.131039,-1.25183 10.597534,-1.13806 l 151.831524,0.45532 224.52856,-299.07128 -58.73199,-0.34137 z"
         id="path8256"
         inkscape:connector-curvature="0"
         style="fill:#999999;fill-rule:nonzero" />
    </g>
  </g>
</svg>
