<?xml version="1.0" encoding="UTF-8" standalone="no"?>
<!-- Created with Inkscape (http://www.inkscape.org/) -->

<svg
   xmlns:dc="http://purl.org/dc/elements/1.1/"
   xmlns:cc="http://creativecommons.org/ns#"
   xmlns:rdf="http://www.w3.org/1999/02/22-rdf-syntax-ns#"
   xmlns:svg="http://www.w3.org/2000/svg"
   xmlns="http://www.w3.org/2000/svg"
   xmlns:sodipodi="http://sodipodi.sourceforge.net/DTD/sodipodi-0.dtd"
   xmlns:inkscape="http://www.inkscape.org/namespaces/inkscape"
   width="210mm"
   height="297mm"
   viewBox="0 0 210 297"
   version="1.1"
   id="svg4912"
   inkscape:version="0.92.2 5c3e80d, 2017-08-06"
   sodipodi:docname="AvailBucket.svg"
   inkscape:export-filename="/Users/Rich/Development/plugins/Avail Plugin/resources/icons/AvailBucket.png"
   inkscape:export-xdpi="6.001554"
   inkscape:export-ydpi="6.001554">
  <defs
     id="defs4906" />
  <sodipodi:namedview
     id="base"
     pagecolor="#ffffff"
     bordercolor="#666666"
     borderopacity="1.0"
     inkscape:pageopacity="0.0"
     inkscape:pageshadow="2"
     inkscape:zoom="0.49497475"
     inkscape:cx="-485.35641"
     inkscape:cy="930.59075"
     inkscape:document-units="mm"
     inkscape:current-layer="layer1"
     showgrid="true"
     showguides="true"
     inkscape:window-width="1436"
     inkscape:window-height="855"
     inkscape:window-x="1469"
     inkscape:window-y="55"
     inkscape:window-maximized="0">
    <inkscape:grid
       type="xygrid"
       id="grid4914" />
  </sodipodi:namedview>
  <metadata
     id="metadata4909">
    <rdf:RDF>
      <cc:Work
         rdf:about="">
        <dc:format>image/svg+xml</dc:format>
        <dc:type
           rdf:resource="http://purl.org/dc/dcmitype/StillImage" />
        <dc:title />
      </cc:Work>
    </rdf:RDF>
  </metadata>
  <g
     inkscape:label="Layer 1"
     inkscape:groupmode="layer"
     id="layer1">
    <g
       id="g4999"
       transform="matrix(2.2159391,0,0,2.2159391,37.552926,44.774246)"
       style="fill:#0f824e;fill-opacity:1">
      <g
         id="g4997"
         style="fill:#0f824e;fill-opacity:1">
        <g
           id="g4995"
           style="fill:#0f824e;fill-opacity:1">
          <g
             id="g4989"
             style="fill:#0f824e;fill-opacity:1">
            <path
               id="path4987"
               d="m 63.95,15.786 c 0,4.006 -12.963,7.238 -28.949,7.238 -15.988,0 -28.951,-3.232 -28.951,-7.238 l 9.65,43.839 c 0,2.672 8.637,4.826 19.301,4.826 10.662,0 19.299,-2.154 19.299,-4.826 v 0 z"
               inkscape:connector-curvature="0"
               style="clip-rule:evenodd;fill:#0f824e;fill-opacity:1;fill-rule:evenodd" />
          </g>
          <g
             id="g4993"
             style="fill:#0f824e;fill-opacity:1">
            <path
               id="path4991"
               d="m 64.030549,15.897357 c 0,-4.004 -12.963,-7.2370001 -28.949,-7.2370001 -15.988,0 -28.9509999,3.2330001 -28.9509999,7.2370001 0,4.006 12.9629999,7.238 28.9509999,7.238 15.986,0 28.949,-3.232 28.949,-7.238 z"
               inkscape:connector-curvature="0"
               style="clip-rule:evenodd;fill:#0f824e;fill-opacity:1;fill-rule:evenodd" />
          </g>
        </g>
      </g>
    </g>
    <g
       transform="matrix(2.4851189,0,0,2.4851189,441.4794,-2246.8892)"
       id="layer1-2"
       inkscape:label="Layer 1">
      <g
         inkscape:label="Layer 2"
         id="layer2"
         inkscape:groupmode="layer" />
      <g
         id="g302">
        <path
           style="fill:none;stroke:#000000;stroke-width:1px;stroke-linecap:butt;stroke-linejoin:miter;stroke-opacity:1"
           d="m -132.04696,938.45682 15.61366,31.07862 -15.68801,-11.37566 -15.46496,11.59872 z"
           id="path171"
           inkscape:connector-curvature="0"
           inkscape:export-xdpi="31.9"
           inkscape:export-ydpi="31.9" />
        <path
           style="fill:none;stroke:#000000;stroke-width:1px;stroke-linecap:butt;stroke-linejoin:miter;stroke-opacity:1"
           d="m -132.12131,948.64288 -5.42761,9.07079 5.35325,-1.78442 5.65066,1.71007 z"
           id="path173"
           inkscape:connector-curvature="0"
           inkscape:export-xdpi="31.9"
           inkscape:export-ydpi="31.9" />
        <g
           id="g197">
          <path
             inkscape:export-ydpi="31.9"
             inkscape:export-xdpi="31.9"
             inkscape:connector-curvature="0"
             id="path175"
             d="m -145.9124,171.38132 c 0,-0.0323 3.11539,-6.33929 6.92309,-14.01561 l 6.9231,-13.95695 2.01117,3.93983 c 3.67071,7.19079 11.95159,23.79148 11.86784,23.79148 -0.0453,0 -3.13502,-2.21472 -6.86598,-4.9216 -3.73096,-2.70688 -6.86665,-4.95348 -6.96819,-4.99245 -0.10155,-0.039 -3.26858,2.24323 -7.03783,5.07155 -3.76926,2.82833 -6.8532,5.11601 -6.8532,5.08375 z m 10.60826,-10.19626 3.09086,-1.03292 3.36937,1.02482 c 1.85316,0.56366 3.39389,1.00032 3.42385,0.97035 0.03,-0.03 -1.4654,-2.50505 -3.32305,-5.50019 -2.94695,-4.75149 -3.40045,-5.41174 -3.55733,-5.17916 -0.37325,0.55336 -6.32558,10.59393 -6.32558,10.67019 0,0.14681 0.21625,0.0848 3.32188,-0.95309 z"
             style="opacity:1;fill:#000000;fill-opacity:1;stroke-width:0.14870153"
             transform="translate(0,796.3622)" />
        </g>
      </g>
    </g>
  </g>
</svg>
