<?xml version="1.0" encoding="UTF-8" standalone="no"?>
<!-- Created with Inkscape (http://www.inkscape.org/) -->

<svg
   xmlns:dc="http://purl.org/dc/elements/1.1/"
   xmlns:cc="http://creativecommons.org/ns#"
   xmlns:rdf="http://www.w3.org/1999/02/22-rdf-syntax-ns#"
   xmlns:svg="http://www.w3.org/2000/svg"
   xmlns="http://www.w3.org/2000/svg"
   xmlns:sodipodi="http://sodipodi.sourceforge.net/DTD/sodipodi-0.dtd"
   xmlns:inkscape="http://www.inkscape.org/namespaces/inkscape"
   width="210mm"
   height="297mm"
   viewBox="0 0 210 297"
   version="1.1"
   id="svg5655"
   inkscape:version="0.92.2 5c3e80d, 2017-08-06"
   sodipodi:docname="one_boo.svg">
  <defs
     id="defs5649" />
  <sodipodi:namedview
     id="base"
     pagecolor="#ffffff"
     bordercolor="#666666"
     borderopacity="1.0"
     inkscape:pageopacity="0.0"
     inkscape:pageshadow="2"
     inkscape:zoom="0.35"
     inkscape:cx="-111.42857"
     inkscape:cy="560"
     inkscape:document-units="mm"
     inkscape:current-layer="layer1"
     showgrid="true"
     inkscape:window-width="1436"
     inkscape:window-height="855"
     inkscape:window-x="1440"
     inkscape:window-y="1"
     inkscape:window-maximized="1">
    <inkscape:grid
       type="xygrid"
       id="grid5657" />
  </sodipodi:namedview>
  <metadata
     id="metadata5652">
    <rdf:RDF>
      <cc:Work
         rdf:about="">
        <dc:format>image/svg+xml</dc:format>
        <dc:type
           rdf:resource="http://purl.org/dc/dcmitype/StillImage" />
        <dc:title></dc:title>
      </cc:Work>
    </rdf:RDF>
  </metadata>
  <g
     inkscape:label="Layer 1"
     inkscape:groupmode="layer"
     id="layer1">
    <path
       id="path5699"
       d="m 119.84805,156.34089 2.91862,-2.77813 v -5.73828 c -6.25898,4.80377 -13.67578,7.35886 -21.16667,7.35886 -7.490883,0 -14.911653,-2.55482 -21.166663,-7.35886 v 5.73828 l 2.91861,2.77813 c 10.2362,9.73984 26.259903,9.73984 36.496103,0 z M 80.433337,136.62943 V 53.583333 c 11.85677,11.28607 30.476823,11.28607 42.333333,0 v 83.046097 l -2.91862,2.77812 c -10.2362,9.74011 -26.259903,9.74011 -36.496103,0 z m 8.46666,-49.179427 H 114.3 v -8.46667 H 88.899997 Z M 101.6,172.11667 c -7.491153,0 -14.911653,-2.55482 -21.166663,-7.35885 v 15.82552 c 11.85253,11.28606 30.476823,11.28606 42.333333,0 v -15.82552 c -6.25898,4.80377 -13.67552,7.35885 -21.16667,7.35885 z"
       inkscape:connector-curvature="0"
       style="fill:#0f824e;fill-opacity:1;stroke-width:0.26458332"
       sodipodi:nodetypes="cccsccccccccccccccccsccccs" />
  </g>
</svg>
